<mxfile host="Electron" modified="2024-10-02T19:31:49.409Z" agent="Mozilla/5.0 (Windows NT 10.0; Win64; x64) AppleWebKit/537.36 (KHTML, like Gecko) draw.io/22.1.2 Chrome/114.0.5735.289 Electron/25.9.4 Safari/537.36" etag="p8InPCk0Q2zDygHHd_m1" version="22.1.2" type="device">
  <diagram name="Page-1" id="g_xruXDZaswso1FpAyIx">
    <mxGraphModel dx="2072" dy="1308" grid="1" gridSize="10" guides="1" tooltips="1" connect="1" arrows="1" fold="1" page="1" pageScale="1" pageWidth="1920" pageHeight="1200" math="0" shadow="0">
      <root>
        <mxCell id="0" />
        <mxCell id="1" parent="0" />
        <mxCell id="6Ur2HCRTJZc6dcj2NT5W-1" value="Tilesheet" style="rounded=1;whiteSpace=wrap;html=1;" vertex="1" parent="1">
          <mxGeometry x="870" y="80" width="120" height="60" as="geometry" />
        </mxCell>
        <mxCell id="6Ur2HCRTJZc6dcj2NT5W-19" style="edgeStyle=orthogonalEdgeStyle;rounded=0;orthogonalLoop=1;jettySize=auto;html=1;entryX=0;entryY=0.5;entryDx=0;entryDy=0;" edge="1" parent="1" source="6Ur2HCRTJZc6dcj2NT5W-2" target="6Ur2HCRTJZc6dcj2NT5W-11">
          <mxGeometry relative="1" as="geometry" />
        </mxCell>
        <mxCell id="6Ur2HCRTJZc6dcj2NT5W-20" style="edgeStyle=orthogonalEdgeStyle;rounded=0;orthogonalLoop=1;jettySize=auto;html=1;entryX=0;entryY=0.5;entryDx=0;entryDy=0;" edge="1" parent="1" source="6Ur2HCRTJZc6dcj2NT5W-2" target="6Ur2HCRTJZc6dcj2NT5W-5">
          <mxGeometry relative="1" as="geometry" />
        </mxCell>
        <mxCell id="6Ur2HCRTJZc6dcj2NT5W-2" value="Object Behavoir Cfg" style="rounded=1;whiteSpace=wrap;html=1;" vertex="1" parent="1">
          <mxGeometry x="250" y="130" width="120" height="60" as="geometry" />
        </mxCell>
        <mxCell id="6Ur2HCRTJZc6dcj2NT5W-21" style="edgeStyle=orthogonalEdgeStyle;rounded=0;orthogonalLoop=1;jettySize=auto;html=1;entryX=0;entryY=0.5;entryDx=0;entryDy=0;" edge="1" parent="1" source="6Ur2HCRTJZc6dcj2NT5W-3" target="6Ur2HCRTJZc6dcj2NT5W-7">
          <mxGeometry relative="1" as="geometry" />
        </mxCell>
        <mxCell id="6Ur2HCRTJZc6dcj2NT5W-22" style="edgeStyle=orthogonalEdgeStyle;rounded=0;orthogonalLoop=1;jettySize=auto;html=1;" edge="1" parent="1" source="6Ur2HCRTJZc6dcj2NT5W-3" target="6Ur2HCRTJZc6dcj2NT5W-8">
          <mxGeometry relative="1" as="geometry" />
        </mxCell>
        <mxCell id="6Ur2HCRTJZc6dcj2NT5W-3" value="Material Cfg" style="rounded=1;whiteSpace=wrap;html=1;" vertex="1" parent="1">
          <mxGeometry x="250" y="330" width="120" height="60" as="geometry" />
        </mxCell>
        <mxCell id="6Ur2HCRTJZc6dcj2NT5W-23" style="edgeStyle=orthogonalEdgeStyle;rounded=0;orthogonalLoop=1;jettySize=auto;html=1;entryX=0;entryY=0.5;entryDx=0;entryDy=0;" edge="1" parent="1" source="6Ur2HCRTJZc6dcj2NT5W-4" target="6Ur2HCRTJZc6dcj2NT5W-12">
          <mxGeometry relative="1" as="geometry" />
        </mxCell>
        <mxCell id="6Ur2HCRTJZc6dcj2NT5W-24" style="edgeStyle=orthogonalEdgeStyle;rounded=0;orthogonalLoop=1;jettySize=auto;html=1;" edge="1" parent="1" source="6Ur2HCRTJZc6dcj2NT5W-4" target="6Ur2HCRTJZc6dcj2NT5W-13">
          <mxGeometry relative="1" as="geometry" />
        </mxCell>
        <mxCell id="6Ur2HCRTJZc6dcj2NT5W-4" value="Creature Cfg" style="rounded=1;whiteSpace=wrap;html=1;" vertex="1" parent="1">
          <mxGeometry x="250" y="530" width="120" height="60" as="geometry" />
        </mxCell>
        <mxCell id="6Ur2HCRTJZc6dcj2NT5W-26" style="edgeStyle=orthogonalEdgeStyle;rounded=0;orthogonalLoop=1;jettySize=auto;html=1;entryX=0;entryY=0.5;entryDx=0;entryDy=0;" edge="1" parent="1" source="6Ur2HCRTJZc6dcj2NT5W-5" target="6Ur2HCRTJZc6dcj2NT5W-9">
          <mxGeometry relative="1" as="geometry" />
        </mxCell>
        <mxCell id="6Ur2HCRTJZc6dcj2NT5W-5" value="Object Graphics Cfg" style="rounded=1;whiteSpace=wrap;html=1;" vertex="1" parent="1">
          <mxGeometry x="450" y="180" width="120" height="60" as="geometry" />
        </mxCell>
        <mxCell id="6Ur2HCRTJZc6dcj2NT5W-27" style="edgeStyle=orthogonalEdgeStyle;rounded=0;orthogonalLoop=1;jettySize=auto;html=1;entryX=0;entryY=0.5;entryDx=0;entryDy=0;" edge="1" parent="1" source="6Ur2HCRTJZc6dcj2NT5W-7" target="6Ur2HCRTJZc6dcj2NT5W-15">
          <mxGeometry relative="1" as="geometry" />
        </mxCell>
        <mxCell id="6Ur2HCRTJZc6dcj2NT5W-7" value="Material Graphics Cfg" style="rounded=1;whiteSpace=wrap;html=1;" vertex="1" parent="1">
          <mxGeometry x="450" y="280" width="120" height="60" as="geometry" />
        </mxCell>
        <mxCell id="6Ur2HCRTJZc6dcj2NT5W-28" style="edgeStyle=orthogonalEdgeStyle;rounded=0;orthogonalLoop=1;jettySize=auto;html=1;entryX=0;entryY=0.5;entryDx=0;entryDy=0;" edge="1" parent="1" source="6Ur2HCRTJZc6dcj2NT5W-8" target="6Ur2HCRTJZc6dcj2NT5W-16">
          <mxGeometry relative="1" as="geometry" />
        </mxCell>
        <mxCell id="6Ur2HCRTJZc6dcj2NT5W-8" value="Material Graphics Cfg" style="rounded=1;whiteSpace=wrap;html=1;" vertex="1" parent="1">
          <mxGeometry x="450" y="380" width="120" height="60" as="geometry" />
        </mxCell>
        <mxCell id="6Ur2HCRTJZc6dcj2NT5W-9" value="Tilesheet" style="rounded=1;whiteSpace=wrap;html=1;" vertex="1" parent="1">
          <mxGeometry x="870" y="180" width="120" height="60" as="geometry" />
        </mxCell>
        <mxCell id="6Ur2HCRTJZc6dcj2NT5W-25" style="edgeStyle=orthogonalEdgeStyle;rounded=0;orthogonalLoop=1;jettySize=auto;html=1;entryX=0;entryY=0.5;entryDx=0;entryDy=0;" edge="1" parent="1" source="6Ur2HCRTJZc6dcj2NT5W-11" target="6Ur2HCRTJZc6dcj2NT5W-1">
          <mxGeometry relative="1" as="geometry" />
        </mxCell>
        <mxCell id="6Ur2HCRTJZc6dcj2NT5W-11" value="Object Graphics Cfg" style="rounded=1;whiteSpace=wrap;html=1;" vertex="1" parent="1">
          <mxGeometry x="450" y="80" width="120" height="60" as="geometry" />
        </mxCell>
        <mxCell id="6Ur2HCRTJZc6dcj2NT5W-29" style="edgeStyle=orthogonalEdgeStyle;rounded=0;orthogonalLoop=1;jettySize=auto;html=1;entryX=0;entryY=0.5;entryDx=0;entryDy=0;" edge="1" parent="1" source="6Ur2HCRTJZc6dcj2NT5W-12" target="6Ur2HCRTJZc6dcj2NT5W-17">
          <mxGeometry relative="1" as="geometry" />
        </mxCell>
        <mxCell id="6Ur2HCRTJZc6dcj2NT5W-12" value="Creature Graphics Cfg" style="rounded=1;whiteSpace=wrap;html=1;" vertex="1" parent="1">
          <mxGeometry x="450" y="480" width="120" height="60" as="geometry" />
        </mxCell>
        <mxCell id="6Ur2HCRTJZc6dcj2NT5W-30" style="edgeStyle=orthogonalEdgeStyle;rounded=0;orthogonalLoop=1;jettySize=auto;html=1;entryX=0;entryY=0.5;entryDx=0;entryDy=0;" edge="1" parent="1" source="6Ur2HCRTJZc6dcj2NT5W-13" target="6Ur2HCRTJZc6dcj2NT5W-18">
          <mxGeometry relative="1" as="geometry" />
        </mxCell>
        <mxCell id="6Ur2HCRTJZc6dcj2NT5W-13" value="Creature Graphics Cfg" style="rounded=1;whiteSpace=wrap;html=1;" vertex="1" parent="1">
          <mxGeometry x="450" y="580" width="120" height="60" as="geometry" />
        </mxCell>
        <mxCell id="6Ur2HCRTJZc6dcj2NT5W-15" value="Tilesheet" style="rounded=1;whiteSpace=wrap;html=1;" vertex="1" parent="1">
          <mxGeometry x="870" y="280" width="120" height="60" as="geometry" />
        </mxCell>
        <mxCell id="6Ur2HCRTJZc6dcj2NT5W-16" value="Tilesheet" style="rounded=1;whiteSpace=wrap;html=1;" vertex="1" parent="1">
          <mxGeometry x="870" y="380" width="120" height="60" as="geometry" />
        </mxCell>
        <mxCell id="6Ur2HCRTJZc6dcj2NT5W-17" value="Tilesheet" style="rounded=1;whiteSpace=wrap;html=1;" vertex="1" parent="1">
          <mxGeometry x="870" y="480" width="120" height="60" as="geometry" />
        </mxCell>
        <mxCell id="6Ur2HCRTJZc6dcj2NT5W-18" value="Tilesheet" style="rounded=1;whiteSpace=wrap;html=1;" vertex="1" parent="1">
          <mxGeometry x="870" y="580" width="120" height="60" as="geometry" />
        </mxCell>
        <mxCell id="6Ur2HCRTJZc6dcj2NT5W-31" value="Tile Indices" style="rounded=1;whiteSpace=wrap;html=1;" vertex="1" parent="1">
          <mxGeometry x="660" y="80" width="120" height="60" as="geometry" />
        </mxCell>
        <mxCell id="6Ur2HCRTJZc6dcj2NT5W-38" value="Tile Indices" style="rounded=1;whiteSpace=wrap;html=1;" vertex="1" parent="1">
          <mxGeometry x="660" y="180" width="120" height="60" as="geometry" />
        </mxCell>
        <mxCell id="6Ur2HCRTJZc6dcj2NT5W-39" value="Tile Indices" style="rounded=1;whiteSpace=wrap;html=1;" vertex="1" parent="1">
          <mxGeometry x="660" y="280" width="120" height="60" as="geometry" />
        </mxCell>
        <mxCell id="6Ur2HCRTJZc6dcj2NT5W-40" value="Tile Indices" style="rounded=1;whiteSpace=wrap;html=1;" vertex="1" parent="1">
          <mxGeometry x="660" y="380" width="120" height="60" as="geometry" />
        </mxCell>
        <mxCell id="6Ur2HCRTJZc6dcj2NT5W-41" value="Tile Indices" style="rounded=1;whiteSpace=wrap;html=1;" vertex="1" parent="1">
          <mxGeometry x="660" y="480" width="120" height="60" as="geometry" />
        </mxCell>
        <mxCell id="6Ur2HCRTJZc6dcj2NT5W-42" value="Tile Indices" style="rounded=1;whiteSpace=wrap;html=1;" vertex="1" parent="1">
          <mxGeometry x="660" y="580" width="120" height="60" as="geometry" />
        </mxCell>
      </root>
    </mxGraphModel>
  </diagram>
</mxfile>
